solid wedge_for_motor_tilt

  facet normal 0.558324 0 -0.829623
    outer loop
      vertex 20 24 13.459719
      vertex 20 0 13.459719
      vertex 0 0 0
    endloop
  endfacet

  facet normal 0.558324 0 -0.829623
    outer loop
      vertex 0 24 0
      vertex 20 24 13.459719
      vertex 0 0 0
    endloop
  endfacet

  facet normal 0 0 1
    outer loop
      vertex 20 24 16.459719
      vertex 0 24 16.459719
      vertex 0 0 16.459719
    endloop
  endfacet

  facet normal 0 0 1
    outer loop
      vertex 20 0 16.459719
      vertex 20 24 16.459719
      vertex 0 0 16.459719
    endloop
  endfacet

  facet normal -1 0 0
    outer loop
      vertex 0 24 16.459719
      vertex 0 24 0
      vertex 0 0 0
    endloop
  endfacet

  facet normal -1 0 0
    outer loop
      vertex 0 0 16.459719
      vertex 0 24 16.459719
      vertex 0 0 0
    endloop
  endfacet

  facet normal 1 0 0
    outer loop
      vertex 20 24 16.459719
      vertex 20 0 16.459719
      vertex 20 0 13.459719
    endloop
  endfacet

  facet normal 1 0 0
    outer loop
      vertex 20 24 13.459719
      vertex 20 24 16.459719
      vertex 20 0 13.459719
    endloop
  endfacet

  facet normal 0 -1 0
    outer loop
      vertex 20 0 16.459719
      vertex 0 0 16.459719
      vertex 0 0 0
    endloop
  endfacet

  facet normal 0 -1 0
    outer loop
      vertex 20 0 13.459719
      vertex 20 0 16.459719
      vertex 0 0 0
    endloop
  endfacet

  facet normal 0 1 0
    outer loop
      vertex 20 24 16.459719
      vertex 20 24 13.459719
      vertex 0 24 0
    endloop
  endfacet

  facet normal 0 1 0
    outer loop
      vertex 0 24 16.459719
      vertex 20 24 16.459719
      vertex 0 24 0
    endloop
  endfacet

endsolid wedge_for_motor_tilt
